<svg width="253" height="193" viewBox="0 0 253 193" fill="none" xmlns="http://www.w3.org/2000/svg">
<g clip-path="url(#clip0_1_11)">
<path fill-rule="evenodd" clip-rule="evenodd" d="M0 0H252.071V192.712H0V0ZM1.62627 1.62627H250.445V191.086H1.62627V1.62627ZM4.8788 4.8788H247.192V187.834H4.8788V4.8788ZM6.50506 6.50506H245.566V186.207H4.8788H6.50506V6.50506Z" fill="url(#paint0_linear_1_11)"/>
<path d="M99.5474 47.7795C101.807 46.3578 113.953 44.6858 114.373 44.5993C114.373 44.5993 108.591 35.7199 100.632 30.4411L101.306 29.2728C101.306 29.2728 109.852 34.6289 116.802 43.6782C116.802 43.6782 125.938 37.7288 130.373 36.7243C130.373 36.7243 139.333 35.4664 146.961 36.4709C146.961 36.4709 155.84 38.4798 159.611 40.4084C159.611 40.4084 167.906 43.431 170.836 43.5917C170.836 43.5917 170.502 45.9344 171.927 47.7764C173.349 49.6246 173.772 57.3265 172.177 59.7588C171.519 60.7633 168.997 61.3041 165.57 61.6008C165.99 60.5624 166.231 59.4374 166.231 58.2506C166.231 53.2963 162.219 49.2877 157.268 49.2877C152.317 49.2877 148.305 53.2994 148.305 58.2506C148.305 59.5703 148.608 60.8096 149.118 61.9377C148.794 61.9377 148.46 61.9377 148.138 61.9377C143.02 61.9377 129.69 61.9377 117.838 61.9377C118.348 60.8096 118.651 59.5672 118.651 58.2506C118.651 53.3025 114.639 49.2908 109.688 49.2908C104.74 49.2908 100.728 53.3056 100.728 58.2506C100.728 59.5703 101.028 60.8096 101.538 61.9377C98.3514 61.9377 96.3703 61.9377 96.3703 61.9377C96.3703 61.9377 94.3614 60.0926 94.111 58.1671C93.8576 56.2386 94.1945 53.2252 94.6117 52.3877C95.0228 51.5501 97.2851 49.2012 99.5474 47.7795ZM149.807 58.1733C149.807 62.2406 153.105 65.5445 157.182 65.5445C161.252 65.5445 164.553 62.2437 164.553 58.1733C164.553 54.103 161.255 50.7991 157.182 50.7991C153.105 50.8022 149.807 54.103 149.807 58.1733ZM102.564 58.2568C102.564 62.2839 105.825 65.5445 109.849 65.5445C113.873 65.5445 117.136 62.2808 117.136 58.2568C117.136 54.2328 113.869 50.9721 109.849 50.9721C105.825 50.9691 102.564 54.2328 102.564 58.2568ZM79.687 48.3946C79.687 50.932 79.687 62.0212 79.687 62.0212C79.687 62.0212 79.9745 64.197 82.586 64.197C85.1945 64.197 85.0864 61.6936 85.0864 61.6936C85.0864 61.6936 85.3398 49.8441 85.7787 49.1178C86.2114 48.3946 89.7625 41.725 90.053 41.725C90.2539 41.725 91.9568 42.7387 92.9798 43.3599C93.1746 43.5701 93.4311 43.7184 93.7154 43.8081C93.7247 43.8111 93.7494 43.8266 93.7494 43.8266L93.7556 43.8173C93.8978 43.8575 94.0307 43.9008 94.1852 43.9008H100.169C101.077 43.9008 101.816 43.1683 101.816 42.2596C101.816 41.3479 101.077 40.6154 100.169 40.6154H94.3243C93.2147 39.6048 90.767 37.4043 89.6141 36.5791C88.0905 35.4881 85.8436 35.5653 84.1097 38.7518C82.3635 41.9444 79.687 45.8602 79.687 48.3946ZM95.0475 32.7003C95.0475 30.9232 93.6042 29.4768 91.8209 29.4768C90.0437 29.4768 88.5973 30.9232 88.5973 32.7003C88.5973 34.4836 90.0437 35.93 91.8209 35.93C93.6042 35.93 95.0475 34.4836 95.0475 32.7003Z" fill="url(#paint1_linear_1_11)"/>
<path d="M46.4368 117.545H51.0413L48.7554 98.7997L46.4368 117.545ZM40.6567 127.864L44.7387 94.6523L43.9223 93.6726H52.6413L56.8539 127.864H52.3147L51.6943 122.704L44.4773 122.671L45.6856 123.618L45.1631 127.864L40.6567 127.864ZM62.6667 122.672H67.9243V93.6076H72.4307V124.566C72.4307 126.395 70.9286 127.799 69.1978 127.799L61.4257 127.831C59.597 127.831 58.1928 126.395 58.1928 124.566V94.6202H58.1601L57.3437 93.6078H62.6666L62.6667 122.672ZM78.4396 98.7346H73.5738V93.5424H87.812V98.7346H81.6074L82.9464 99.7143V127.766H78.4399L78.4396 98.7346ZM93.4612 122.672H98.7515V98.8007H92.155L93.4612 99.813V122.672ZM103.225 96.8733V124.599C103.225 126.427 101.821 127.832 99.9919 127.832H92.2198C90.3911 127.832 88.9868 126.428 88.9868 124.599V96.8733C88.9868 95.1426 90.391 93.6404 92.2198 93.6404H99.9919C101.821 93.6404 103.225 95.1425 103.225 96.8733ZM113.022 93.6405H120.566L123.603 105.168L126.672 93.6405H133.399L133.367 127.832H128.893V102.752L123.602 122.607L118.345 102.752V127.832H113.838V94.62L113.022 93.6405ZM140.714 117.545H145.319L143.033 98.7997L140.714 117.545ZM134.934 127.864L139.016 94.6523L138.2 93.6726H146.919L151.131 127.864H146.592L145.972 122.704L138.755 122.671L139.963 123.618L139.44 127.864L134.934 127.864ZM166.381 96.8733V103.927H161.907V98.7674H155.311L156.617 99.7797V103.927L166.381 115.912V121.071V124.598C166.381 126.329 164.977 127.831 163.148 127.831H155.376C153.547 127.831 152.143 126.329 152.143 124.598V117.316H156.617V122.671H161.907V117.512L152.143 105.527V96.8732C152.143 95.0445 153.547 93.6402 155.376 93.6402H163.148C164.977 93.6402 166.381 95.0445 166.381 96.8733ZM172.064 98.7346H167.198V93.5424H181.436V98.7346H175.232L176.571 99.7143V127.766H172.064L172.064 98.7346ZM183.297 94.653L182.481 93.6406H195.315V98.8002H186.465L187.804 99.8126V108.14H193.094V113.332H186.465L187.804 114.312V122.672H195.315V127.831H183.297V122.672V113.332V108.14L183.297 94.653ZM201.683 108.042H206.94V98.6702H200.344L201.683 99.6825V108.042ZM211.415 96.7756V109.968C211.415 111.797 210.01 113.201 208.182 113.201H207.561L211.415 127.733H206.777L202.924 113.201H200.344L201.683 114.214V127.734H197.177V98.6699V94.5226L196.36 93.5103L208.182 93.5429C210.01 93.5429 211.415 94.9468 211.415 96.7756Z" fill="url(#paint2_linear_1_11)"/>
<path d="M41.6389 152.303C41.5478 152.303 41.4698 152.225 41.4698 152.134V144.341C41.4698 144.25 41.5478 144.172 41.6389 144.172H43.5124C43.5774 144.172 43.6425 144.211 43.6685 144.263L45.62 149.076L47.5585 144.263C47.5845 144.211 47.6495 144.172 47.7146 144.172H49.588C49.6791 144.172 49.7571 144.25 49.7571 144.341V152.134C49.7571 152.225 49.6791 152.303 49.588 152.303H48.0658C47.9748 152.303 47.8967 152.225 47.8967 152.134V147.945L46.3095 151.978C46.2835 152.03 46.2184 152.069 46.1664 152.069H45.0736C45.0085 152.069 44.9435 152.03 44.9174 151.978L43.3172 147.945V152.134C43.3172 152.225 43.2391 152.303 43.1481 152.303H41.6389ZM52.7361 152.303V144.51C52.7361 144.185 52.8012 144.12 52.9052 144.12H58.6036C58.6947 144.12 58.7727 144.185 58.7727 144.276V145.746C58.7727 145.837 58.6947 145.915 58.6036 145.915H54.7526V147.268H57.1855C57.2766 147.268 57.3546 147.346 57.3546 147.437V148.894C57.3546 148.985 57.2766 149.063 57.1855 149.063H54.7526V150.456H58.5906C58.6817 150.456 58.7597 150.534 58.7597 150.625V152.082C58.7597 152.173 58.6817 152.251 58.5906 152.251H52.9052C52.8012 152.251 52.7361 152.173 52.7361 152.303ZM65.8498 152.303C65.0822 152.303 64.3797 152.121 63.7552 151.757C63.1307 151.379 62.6364 150.872 62.2851 150.234C61.9338 149.597 61.7517 148.881 61.7517 148.088C61.7517 147.32 61.9338 146.605 62.2981 145.967C62.6624 145.343 63.1698 144.835 63.7943 144.471C64.4317 144.107 65.1473 143.925 65.9019 143.925C66.4743 143.925 67.0337 144.055 67.5802 144.289C68.1266 144.536 68.5949 144.861 68.9852 145.278C69.0373 145.343 69.0373 145.434 68.9852 145.499L67.7493 146.514C67.7103 146.553 67.6712 146.579 67.6192 146.579C67.5672 146.579 67.5151 146.553 67.4891 146.514C66.8256 145.707 65.7588 145.538 64.8611 146.097C64.0805 146.579 63.7943 147.463 63.8333 148.348C63.8723 149.246 64.5228 150.013 65.3815 150.273C66.1621 150.508 66.9297 150.325 67.4891 149.727C67.5281 149.701 67.5672 149.675 67.6192 149.688C67.6712 149.688 67.7103 149.701 67.7363 149.74L68.9982 150.625C69.0503 150.69 69.0503 150.781 68.9982 150.846C68.5819 151.288 68.0875 151.652 67.5411 151.913C66.9817 152.173 66.4093 152.303 65.8498 152.303ZM77.376 152.303C77.285 152.303 77.2069 152.225 77.2069 152.134V144.341C77.2069 144.25 77.285 144.172 77.376 144.172H78.9112C78.9632 144.172 79.0153 144.198 79.0543 144.237L82.0466 148.855V144.341C82.0466 144.25 82.1247 144.172 82.2157 144.172H83.816C83.907 144.172 83.9851 144.25 83.9851 144.341V152.134C83.9851 152.225 83.907 152.303 83.816 152.303H82.2808C82.2287 152.303 82.1767 152.277 82.1377 152.238L79.1584 147.645V152.134C79.1584 152.225 79.0803 152.303 78.9893 152.303H77.376ZM87.1332 152.303C87.0421 152.303 86.9641 152.225 86.9641 152.134V144.341C86.9641 144.25 87.0421 144.172 87.1332 144.172H88.8245C88.9155 144.172 88.9936 144.25 88.9936 144.341V152.134C88.9936 152.225 88.9155 152.303 88.8245 152.303H87.1332ZM96.0707 152.303C95.3031 152.303 94.6006 152.121 93.9761 151.757C93.3516 151.379 92.8572 150.872 92.506 150.234C92.1547 149.597 91.9726 148.881 91.9726 148.088C91.9726 147.32 92.1547 146.605 92.519 145.967C92.8833 145.343 93.3907 144.835 94.0151 144.471C94.6526 144.107 95.3682 143.925 96.1227 143.925C96.6952 143.925 97.2546 144.055 97.801 144.289C98.3475 144.536 98.8158 144.861 99.2061 145.278C99.2582 145.343 99.2582 145.434 99.2061 145.499L97.9702 146.514C97.9311 146.553 97.8921 146.579 97.8401 146.579C97.788 146.579 97.736 146.553 97.71 146.514C97.0465 145.707 95.9796 145.538 95.082 146.097C94.3014 146.579 94.0151 147.463 94.0542 148.348C94.0932 149.246 94.7437 150.013 95.6024 150.273C96.383 150.508 97.1505 150.325 97.71 149.727C97.749 149.701 97.788 149.675 97.8401 149.688C97.8921 149.688 97.9311 149.701 97.9572 149.74L99.2191 150.625C99.2712 150.69 99.2712 150.781 99.2191 150.846C98.8028 151.288 98.3084 151.652 97.762 151.913C97.2026 152.173 96.6301 152.303 96.0707 152.303ZM101.756 152.303C101.704 152.303 101.652 152.277 101.626 152.225C101.587 152.186 101.587 152.121 101.6 152.069L104.631 144.276C104.657 144.211 104.722 144.172 104.787 144.172H106.53C106.595 144.172 106.661 144.211 106.687 144.276L109.666 152.069C109.679 152.121 109.679 152.173 109.64 152.225C109.614 152.277 109.562 152.303 109.51 152.303H107.701C107.636 152.303 107.571 152.264 107.545 152.199L107.064 151.002L104.137 151.015L103.655 152.199C103.629 152.264 103.564 152.303 103.499 152.303H101.756ZM104.67 149.376H106.543L105.607 146.618L104.67 149.376ZM117.887 152.303C117.835 152.303 117.783 152.277 117.757 152.225C117.718 152.186 117.718 152.121 117.731 152.069L120.763 144.276C120.789 144.211 120.854 144.172 120.919 144.172H122.662C122.727 144.172 122.792 144.211 122.818 144.276L125.798 152.069C125.811 152.121 125.811 152.173 125.772 152.225C125.745 152.277 125.693 152.303 125.641 152.303H123.833C123.768 152.303 123.703 152.264 123.677 152.199L123.196 151.002L120.268 151.015L119.787 152.199C119.761 152.264 119.696 152.303 119.631 152.303H117.887ZM120.802 149.376H122.675L121.738 146.618L120.802 149.376ZM132.055 152.303C131.352 152.303 130.845 152.16 130.312 151.874C129.791 151.587 129.375 151.184 129.089 150.651C128.803 150.13 128.659 149.506 128.659 148.79V144.211C128.659 144.12 128.737 144.055 128.829 144.055H130.52C130.611 144.055 130.676 144.12 130.676 144.211V148.79C130.676 149.311 130.819 149.714 131.092 150C131.365 150.286 131.613 150.43 132.068 150.43C132.523 150.43 132.758 150.286 133.018 150.013C133.278 149.727 133.408 149.311 133.408 148.79V144.211C133.408 144.12 133.486 144.055 133.577 144.055H135.268C135.36 144.055 135.438 144.12 135.438 144.211V148.79C135.438 149.506 135.294 150.13 135.008 150.651C134.735 151.184 134.319 151.587 133.798 151.874C133.278 152.16 132.758 152.303 132.055 152.303ZM140.524 152.303C140.433 152.303 140.368 152.225 140.368 152.134V145.993H138.586C138.495 145.993 138.417 145.928 138.417 145.837V144.341C138.417 144.25 138.495 144.172 138.586 144.172H144.167C144.271 144.172 144.336 144.25 144.336 144.341V145.837C144.336 145.928 144.271 145.993 144.167 145.993H142.385V152.134C142.385 152.225 142.307 152.303 142.215 152.303H140.524ZM150.984 152.303C150.203 152.303 149.488 152.121 148.863 151.757C148.226 151.392 147.718 150.872 147.341 150.247C146.977 149.61 146.795 148.881 146.795 148.101C146.795 147.333 146.977 146.618 147.341 145.98C147.718 145.343 148.213 144.835 148.85 144.471C149.488 144.107 150.203 143.925 150.984 143.925C151.751 143.925 152.467 144.107 153.104 144.471C153.742 144.835 154.249 145.343 154.614 145.98C154.991 146.618 155.173 147.333 155.173 148.101C155.173 148.881 154.991 149.597 154.614 150.234C154.249 150.872 153.742 151.379 153.104 151.757C152.467 152.121 151.751 152.303 150.984 152.303ZM151.01 150.43C151.387 150.43 151.738 150.325 152.051 150.13C152.376 149.922 152.636 149.649 152.818 149.285C153.013 148.933 153.104 148.53 153.104 148.101C153.104 147.684 153.013 147.281 152.818 146.93C152.636 146.579 152.376 146.305 152.051 146.097C151.738 145.902 151.387 145.798 151.01 145.798C150.62 145.798 150.268 145.902 149.943 146.097C149.605 146.305 149.345 146.579 149.149 146.93C148.954 147.294 148.863 147.684 148.863 148.101C148.863 148.53 148.954 148.933 149.149 149.285C149.358 149.636 149.618 149.922 149.943 150.117C150.268 150.325 150.62 150.43 151.01 150.43ZM158.191 152.303C158.1 152.303 158.022 152.225 158.022 152.134V144.341C158.022 144.25 158.1 144.172 158.191 144.172H160.065C160.13 144.172 160.195 144.211 160.221 144.263L162.172 149.076L164.111 144.263C164.137 144.211 164.202 144.172 164.267 144.172H166.14C166.231 144.172 166.309 144.25 166.309 144.341V152.134C166.309 152.225 166.231 152.303 166.14 152.303H164.618C164.527 152.303 164.449 152.225 164.449 152.134V147.945L162.862 151.978C162.836 152.03 162.771 152.069 162.719 152.069H161.626C161.561 152.069 161.496 152.03 161.47 151.978L159.869 147.945V152.134C159.869 152.225 159.791 152.303 159.7 152.303H158.191ZM173.347 152.303C172.567 152.303 171.851 152.121 171.227 151.757C170.589 151.392 170.082 150.872 169.705 150.247C169.34 149.61 169.158 148.881 169.158 148.101C169.158 147.333 169.34 146.618 169.705 145.98C170.082 145.343 170.576 144.835 171.214 144.471C171.851 144.107 172.567 143.925 173.347 143.925C174.115 143.925 174.831 144.107 175.468 144.471C176.105 144.835 176.613 145.343 176.977 145.98C177.354 146.618 177.537 147.333 177.537 148.101C177.537 148.881 177.354 149.597 176.977 150.234C176.613 150.872 176.105 151.379 175.468 151.757C174.831 152.121 174.115 152.303 173.347 152.303ZM173.373 150.43C173.751 150.43 174.102 150.325 174.414 150.13C174.739 149.922 175 149.649 175.182 149.285C175.377 148.933 175.468 148.53 175.468 148.101C175.468 147.684 175.377 147.281 175.182 146.93C175 146.579 174.739 146.305 174.414 146.097C174.102 145.902 173.751 145.798 173.373 145.798C172.983 145.798 172.632 145.902 172.307 146.097C171.968 146.305 171.708 146.579 171.513 146.93C171.318 147.294 171.227 147.684 171.227 148.101C171.227 148.53 171.318 148.933 171.513 149.285C171.721 149.636 171.981 149.922 172.307 150.117C172.632 150.325 172.983 150.43 173.373 150.43ZM182.103 152.303C182.012 152.303 181.947 152.225 181.947 152.134V145.993H180.164C180.073 145.993 179.995 145.928 179.995 145.837V144.341C179.995 144.25 180.073 144.172 180.164 144.172H185.746C185.85 144.172 185.915 144.25 185.915 144.341V145.837C185.915 145.928 185.85 145.993 185.746 145.993H183.963V152.134C183.963 152.225 183.885 152.303 183.794 152.303H182.103ZM189.063 152.303C188.972 152.303 188.894 152.225 188.894 152.134V144.341C188.894 144.25 188.972 144.172 189.063 144.172H190.754C190.845 144.172 190.923 144.25 190.923 144.341V152.134C190.923 152.225 190.845 152.303 190.754 152.303H189.063ZM196.673 152.303C196.608 152.303 196.543 152.264 196.517 152.199L193.915 144.393C193.889 144.341 193.902 144.289 193.928 144.237C193.967 144.198 194.019 144.172 194.071 144.172H195.893C195.958 144.172 196.023 144.211 196.049 144.289L197.597 149.376L199.158 144.289C199.184 144.211 199.249 144.172 199.314 144.172H201.058C201.11 144.172 201.162 144.198 201.201 144.237C201.227 144.289 201.24 144.341 201.214 144.393L198.573 152.199C198.547 152.264 198.495 152.303 198.417 152.303H196.673ZM202.684 152.303C202.632 152.303 202.579 152.277 202.553 152.225C202.514 152.186 202.514 152.121 202.527 152.069L205.559 144.276C205.585 144.211 205.65 144.172 205.715 144.172H207.458C207.523 144.172 207.588 144.211 207.614 144.276L210.594 152.069C210.607 152.121 210.607 152.173 210.568 152.225C210.542 152.277 210.49 152.303 210.438 152.303H208.629C208.564 152.303 208.499 152.264 208.473 152.199L207.992 151.002L205.064 151.015L204.583 152.199C204.557 152.264 204.492 152.303 204.427 152.303H202.684ZM205.598 149.376H207.471L206.535 146.618L205.598 149.376Z" fill="url(#paint3_linear_1_11)"/>
</g>
<defs>
<linearGradient id="paint0_linear_1_11" x1="0" y1="0" x2="252.071" y2="0" gradientUnits="userSpaceOnUse">
<stop stop-color="#8F5E25"/>
<stop offset="0.5" stop-color="#FBF4A1"/>
<stop offset="1" stop-color="#8F5E25"/>
</linearGradient>
<linearGradient id="paint1_linear_1_11" x1="79.687" y1="29.2728" x2="173.197" y2="29.2728" gradientUnits="userSpaceOnUse">
<stop stop-color="#8F5E25"/>
<stop offset="0.5" stop-color="#FBF4A1"/>
<stop offset="1" stop-color="#8F5E25"/>
</linearGradient>
<linearGradient id="paint2_linear_1_11" x1="40.6566" y1="93.5103" x2="211.415" y2="93.5103" gradientUnits="userSpaceOnUse">
<stop stop-color="#8F5E25"/>
<stop offset="0.5" stop-color="#FBF4A1"/>
<stop offset="1" stop-color="#8F5E25"/>
</linearGradient>
<linearGradient id="paint3_linear_1_11" x1="41.4698" y1="143.925" x2="210.601" y2="143.925" gradientUnits="userSpaceOnUse">
<stop stop-color="#8F5E25"/>
<stop offset="0.5" stop-color="#FBF4A1"/>
<stop offset="1" stop-color="#8F5E25"/>
</linearGradient>
<clipPath id="clip0_1_11">
<rect width="252.071" height="192.712" fill="white"/>
</clipPath>
</defs>
</svg>
