<svg width="130" height="36" viewBox="0 0 130 36" fill="none" xmlns="http://www.w3.org/2000/svg">
<g clip-path="url(#clip0_2_2)">
<path d="M0 36L1.86272 0.494196H7.22281L9.08553 36H6.15839L5.77825 28.5871L5.24604 29.3474C4.58712 30.2598 4.1056 30.9947 3.80148 31.5523C3.49736 32.1098 3.29461 32.6484 3.19324 33.1679C3.09187 33.6874 3.01584 34.3907 2.96515 35.2777L2.92714 36H0ZM5.01795 23.6832C5.24604 23.0496 5.36008 22.15 5.36008 20.9842L4.52376 5.24604L3.42133 26.4203C4.25766 25.2291 4.78986 24.3168 5.01795 23.6832ZM20.452 0.494196V31.6283C20.452 34.5428 19.0327 36 16.1943 36H15.6241C14.1035 36 13.0137 35.6135 12.3548 34.8406C11.6959 34.0676 11.3664 32.9968 11.3664 31.6283V0.494196H14.5216V31.2101C14.5216 31.717 14.6167 32.1162 14.8068 32.4076C14.9968 32.6991 15.358 32.8448 15.8902 32.8448C16.4224 32.8448 16.7899 32.6991 16.9926 32.4076C17.1954 32.1162 17.2967 31.717 17.2967 31.2101V0.494196H20.452ZM31.8184 3.64942H28.8532V36H25.698V3.64942H22.7328V0.494196H31.8184V3.64942ZM43.1848 4.3717V31.6283C43.1848 34.5428 41.7656 36 38.9271 36H40.5998H38.3569C36.8363 36 35.7466 35.6135 35.0876 34.8406C34.4287 34.0676 34.0993 32.9968 34.0993 31.6283V4.3717C34.0993 2.97783 34.4287 1.90074 35.0876 1.14045C35.7466 0.380152 36.8363 3.8147e-06 38.3569 3.8147e-06H40.2196H38.9271C41.7656 3.8147e-06 43.1848 1.45724 43.1848 4.3717ZM40.0296 4.78987C40.0296 4.283 39.9282 3.88385 39.7254 3.5924C39.5227 3.30095 39.1552 3.15523 38.623 3.15523C38.0908 3.15523 37.7297 3.30095 37.5396 3.5924C37.3495 3.88385 37.2545 4.283 37.2545 4.78987V31.2101C37.2545 31.717 37.3495 32.1162 37.5396 32.4076C37.7297 32.6991 38.0908 32.8448 38.623 32.8448C39.1552 32.8448 39.5227 32.6991 39.7254 32.4076C39.9282 32.1162 40.0296 31.717 40.0296 31.2101V4.78987Z" fill="#4A4A4A"/>
<path d="M77.9398 35.7719H76.4952V3.15522H76.3052L71.2492 35.7719H69.6906L64.6346 3.15522H64.4446V35.7719H63V0.2661H65.661L70.4509 31.4382L75.2788 0.2661H77.9398V35.7719ZM82.0454 35.7719H80.6008L83.49 0.2661H85.9609L88.8501 35.7719H87.4055L86.6072 25.8881C86.265 26.3823 85.7709 27.0285 85.1626 27.9409C83.7181 30.0317 82.3875 31.5523 82.1595 34.5934L82.0454 35.7719ZM82.5776 29.2334C83.0718 28.4351 83.7181 27.5227 84.4784 26.4583C86.3791 23.7212 86.227 23.9113 86.227 21.5544C86.227 21.2883 84.8965 4.82787 84.7825 3.11721H84.7064L82.5776 29.2334ZM100.178 25.5079V32.0465C100.178 34.3654 99.2281 36 96.301 36H95.7687C92.9176 36 91.9293 34.3654 91.9293 32.0465V22.7709H93.3738V31.4382C93.3738 33.1109 93.754 34.5554 96.0729 34.5554C98.3538 34.5554 98.7339 33.1109 98.7339 31.4382V25.1278C98.7339 22.6568 97.0612 20.566 95.6167 18.4752C93.1837 14.9398 91.9293 13.5713 91.9293 9.88384V3.95353C91.9293 1.63463 92.8796 -3.8147e-06 95.7687 -3.8147e-06H96.301C99.1901 -3.8147e-06 100.178 1.63463 100.178 3.95353V13.3052H98.7339V4.56177C98.7339 2.88912 98.3157 1.44456 96.0348 1.44456C93.754 1.44456 93.3738 2.88912 93.3738 4.56177V10.264C93.3358 12.6589 94.4002 14.2555 96.301 16.9926C98.886 20.7181 100.178 22.0866 100.178 25.5079ZM110.595 0.2661V1.71066H106.945V35.7719H105.501V1.71066H101.889V0.2661H110.595ZM118.692 18.7413H115.042V34.3273H118.692V35.7719H113.636V0.2661H118.692V1.71066H115.042V17.2967H118.692V18.7413ZM126.523 17.8669C128.69 20.9461 129.792 22.3907 129.792 25.5079V35.7719H128.347V25.1658C128.347 22.9229 126.979 21.0222 125.648 19.1214C124.318 21.0222 122.987 22.9229 122.987 25.1658V35.7719H121.543V0.2661H125.914C128.842 0.2661 129.792 1.90074 129.792 4.21964V9.88384C129.792 13.3812 128.652 14.7877 126.523 17.8669ZM122.987 20.528C123.596 19.5396 124.394 18.4372 125.42 16.9926C127.283 14.2936 128.347 12.6589 128.347 10.302V4.82787C128.347 3.15522 127.967 1.71066 125.686 1.71066H122.987V20.528Z" fill="#4A4A4A"/>
</g>
<defs>
<clipPath id="clip0_2_2">
<rect width="129.792" height="36" fill="white"/>
</clipPath>
</defs>
</svg>
