<svg width="204" height="193" viewBox="0 0 204 193" fill="none" xmlns="http://www.w3.org/2000/svg">
<g clip-path="url(#clip0_1_20)">
<path d="M18.7857 78.0083H33.7506L26.3212 17.0865L18.7857 78.0083ZM0.000317507 111.546L13.2667 3.60726L10.6134 0.423277H38.9507L52.6418 111.546H37.8893L35.8727 94.7766L12.4174 94.6704L16.3443 97.7483L14.6461 111.545L0.000317507 111.546ZM71.5336 94.6709H88.6209V0.211964H103.267V100.827C103.267 106.771 98.3851 111.335 92.7597 111.335L67.5003 111.441C61.557 111.441 56.993 106.771 56.993 100.827V3.50271H56.8869L54.2335 0.212589H71.5332L71.5336 94.6709ZM122.796 16.8749H106.982V0H153.257V16.8749H133.092L137.443 20.0589V111.227H122.797L122.796 16.8749ZM171.617 94.6709H188.81V17.0897H167.371L171.617 20.3798V94.6709ZM203.349 10.8256V100.934C203.349 106.877 198.785 111.441 192.842 111.441H167.582C161.639 111.441 157.075 106.878 157.075 100.934V10.8256C157.075 5.20066 161.639 0.318344 167.582 0.318344H192.842C198.785 0.318344 203.349 5.20026 203.349 10.8256Z" fill="url(#paint0_linear_1_20)"/>
<path d="M0 122.278H15.5903L21.8668 146.102L28.211 122.278H42.1139L42.0464 192.942H32.8002V141.108L21.8667 182.143L11.0008 141.108V192.942H1.68729V124.303L0 122.278ZM57.2317 171.682H66.7479L62.0235 132.941L57.2317 171.682ZM45.286 193.008L53.7221 124.37L52.0349 122.345H70.0546L78.7609 193.008H69.3797L68.0974 182.345L53.182 182.277L55.6792 184.234L54.5993 193.008L45.286 193.008ZM110.278 128.96V143.538H101.032V132.874H87.3988L90.0983 134.966V143.538L110.278 168.306V178.97V186.259C110.278 189.836 107.376 192.94 103.596 192.94H87.5338C83.7544 192.94 80.8522 189.836 80.8522 186.259V171.208H90.0983V182.277H101.032V171.613L80.8522 146.845V128.96C80.8522 125.18 83.7542 122.278 87.5338 122.278H103.596C107.376 122.278 110.278 125.18 110.278 128.96ZM122.022 132.807H111.966V122.076H141.393V132.807H128.569L131.337 134.831V192.806H122.023L122.022 132.807ZM145.239 124.371L143.552 122.279H170.075V132.942H151.785L154.552 135.034V152.244H165.486V162.975H151.786L154.553 165V182.277H170.075V192.941H145.239V182.277V162.975V152.244L145.239 124.371ZM183.236 152.043H194.102V132.673H180.469L183.236 134.766V152.043ZM203.349 128.758V156.024C203.349 159.803 200.447 162.705 196.667 162.705H195.385L203.349 192.737H193.765L185.801 162.705H180.47L183.237 164.797V192.74H173.923V132.673V124.102L172.236 122.009L196.667 122.077C200.447 122.077 203.349 124.978 203.349 128.758Z" fill="url(#paint1_linear_1_20)"/>
</g>
<defs>
<linearGradient id="paint0_linear_1_20" x1="0" y1="0" x2="203.349" y2="0" gradientUnits="userSpaceOnUse">
<stop stop-color="#8F5E25"/>
<stop offset="0.5" stop-color="#FBF4A1"/>
<stop offset="1" stop-color="#8F5E25"/>
</linearGradient>
<linearGradient id="paint1_linear_1_20" x1="0" y1="122.009" x2="203.349" y2="122.009" gradientUnits="userSpaceOnUse">
<stop stop-color="#8F5E25"/>
<stop offset="0.5" stop-color="#FBF4A1"/>
<stop offset="1" stop-color="#8F5E25"/>
</linearGradient>
<clipPath id="clip0_1_20">
<rect width="203.349" height="192.712" fill="white"/>
</clipPath>
</defs>
</svg>
