<svg width="129.7919928410977" height="36" viewBox="0 0 129.7919928410977 36" class="css-1j8o68f"><defs id="SvgjsDefs1497"></defs><g id="SvgjsG1498" featurekey="nameLeftFeature-0" transform="matrix(1.9007391227505699,0,0,1.9007391227505699,-0.9883843075765747,-2.014780868911074)" fill="#4a4a4a"><path d="M0.52 20 l0.98 -18.68 l2.82 0 l0.98 18.68 l-1.54 0 l-0.2 -3.9 l-0.28 0.4 q-0.52 0.72 -0.76 1.16 t-0.32 0.85 t-0.12 1.11 l-0.02 0.38 l-1.54 0 z M3.16 13.52 q0.18 -0.5 0.18 -1.42 l-0.44 -8.28 l-0.58 11.14 q0.66 -0.94 0.84 -1.44 z M11.280000000000001 1.3200000000000003 l0 16.38 q0 2.3 -2.24 2.3 l-0.3 0 q-1.2 0 -1.72 -0.61 t-0.52 -1.69 l0 -16.38 l1.66 0 l0 16.16 q0 0.4 0.15 0.63 t0.57 0.23 t0.58 -0.23 t0.16 -0.63 l0 -16.16 l1.66 0 z M17.26 2.9800000000000004 l-1.56 0 l0 17.02 l-1.66 0 l0 -17.02 l-1.56 0 l0 -1.66 l4.78 0 l0 1.66 z M23.24 3.3599999999999994 l0 14.34 q0 2.3 -2.24 2.3 l0.88 0 l-1.18 0 q-1.2 0 -1.72 -0.61 t-0.52 -1.69 l0 -14.34 q0 -1.1 0.52 -1.7 t1.72 -0.6 l0.98 0 l-0.68 0 q2.24 0 2.24 2.3 z M21.58 3.5799999999999983 q0 -0.4 -0.16 -0.63 t-0.58 -0.23 t-0.57 0.23 t-0.15 0.63 l0 13.9 q0 0.4 0.15 0.63 t0.57 0.23 t0.58 -0.23 t0.16 -0.63 l0 -13.9 z"></path></g><g id="SvgjsG1499" featurekey="nameRightFeature-0" transform="matrix(1.900739314164109,0,0,1.900739314164109,52.355859115606485,-2.242875689802653)" fill="#4a4a4a"><path d="M13.46 20 l-0.76 0 l0 -17.16 l-0.1 0 l-2.66 17.16 l-0.82 0 l-2.66 -17.16 l-0.1 0 l0 17.16 l-0.76 0 l0 -18.68 l1.4 0 l2.52 16.4 l2.54 -16.4 l1.4 0 l0 18.68 z M15.620000000000003 20 l-0.76 0 l1.52 -18.68 l1.3 0 l1.52 18.68 l-0.76 0 l-0.42 -5.2 c-0.18 0.26 -0.44 0.6 -0.76 1.08 c-0.76 1.1 -1.46 1.9 -1.58 3.5 z M15.900000000000002 16.56 c0.26 -0.42 0.6 -0.9 1 -1.46 c1 -1.44 0.92 -1.34 0.92 -2.58 c0 -0.14 -0.7 -8.8 -0.76 -9.7 l-0.04 0 z M25.160000000000004 14.6 l0 3.44 c0 1.22 -0.5 2.08 -2.04 2.08 l-0.28 0 c-1.5 0 -2.02 -0.86 -2.02 -2.08 l0 -4.88 l0.76 0 l0 4.56 c0 0.88 0.2 1.64 1.42 1.64 c1.2 0 1.4 -0.76 1.4 -1.64 l0 -3.32 c0 -1.3 -0.88 -2.4 -1.64 -3.5 c-1.28 -1.86 -1.94 -2.58 -1.94 -4.52 l0 -3.12 c0 -1.22 0.5 -2.08 2.02 -2.08 l0.28 0 c1.52 0 2.04 0.86 2.04 2.08 l0 4.92 l-0.76 0 l0 -4.6 c0 -0.88 -0.22 -1.64 -1.42 -1.64 s-1.4 0.76 -1.4 1.64 l0 3 c-0.02 1.26 0.54 2.1 1.54 3.54 c1.36 1.96 2.04 2.68 2.04 4.48 z M30.640000000000004 1.3200000000000003 l0 0.76 l-1.92 0 l0 17.92 l-0.76 0 l0 -17.92 l-1.9 0 l0 -0.76 l4.58 0 z M34.900000000000006 11.04 l-1.92 0 l0 8.2 l1.92 0 l0 0.76 l-2.66 0 l0 -18.68 l2.66 0 l0 0.76 l-1.92 0 l0 8.2 l1.92 0 l0 0.76 z M39.02 10.58 c1.14 1.62 1.72 2.38 1.72 4.02 l0 5.4 l-0.76 0 l0 -5.58 c0 -1.18 -0.72 -2.18 -1.42 -3.18 c-0.7 1 -1.4 2 -1.4 3.18 l0 5.58 l-0.76 0 l0 -18.68 l2.3 0 c1.54 0 2.04 0.86 2.04 2.08 l0 2.98 c0 1.84 -0.6 2.58 -1.72 4.2 z M37.160000000000004 11.98 c0.32 -0.52 0.74 -1.1 1.28 -1.86 c0.98 -1.42 1.54 -2.28 1.54 -3.52 l0 -2.88 c0 -0.88 -0.2 -1.64 -1.4 -1.64 l-1.42 0 l0 9.9 z"></path></g></svg>